<?xml version="1.0" encoding="iso-8859-1"?>
<!-- Uploaded to: SVG Repo, www.svgrepo.com, Generator: SVG Repo Mixer Tools -->
<svg height="800px" width="800px" version="1.1" id="Layer_1" xmlns="http://www.w3.org/2000/svg" xmlns:xlink="http://www.w3.org/1999/xlink" 
	 viewBox="0 0 512 512" xml:space="preserve">
<path style="fill:#58595B;" d="M423.913,25.019V134.94c0,24.066-19.509,43.575-43.575,43.575h-1.153
	c-24.066,0-43.575-19.509-43.575-43.575l0,0c0-16.266-13.187-29.453-29.453-29.453h-89.46c-16.266,0-29.453,13.187-29.453,29.453
	l0,0c0,26.306-21.326,47.632-47.632,47.632h-3.894c-26.306,0-47.632-21.326-47.632-47.632V25.019C88.085,11.201,76.884,0,63.066,0
	l0,0C49.249,0,38.048,11.201,38.048,25.019v117.293h0.037v244.667C38.085,456.026,94.059,512,163.106,512h185.824
	c69.047,0,125.021-55.974,125.021-125.021V142.312V25.019C473.951,11.201,462.75,0,448.932,0l0,0
	C435.115,0,423.913,11.201,423.913,25.019z"/>
<path style="fill:#F2C6A0;" d="M311.011,193.866c5.548,0,11.109,2.011,15.5,6.075c9.248,8.564,9.804,23.002,1.241,32.251
	c-20.629,22.281-45.643,34.057-72.335,34.057c-25.359,0-49.896-11.699-70.955-33.831c-8.689-9.13-8.33-23.575,0.8-32.263
	c9.13-8.69,23.576-8.33,32.265,0.801c12.408,13.04,25.157,19.65,37.89,19.65c13.84,0,26.909-6.536,38.843-19.425
	C298.756,196.326,304.875,193.866,311.011,193.866z"/>
<g>
	<path style="fill:#414042;" d="M93.516,246.788c-5.088,0-9.212,4.123-9.212,9.212v153.157c0,5.089,4.125,9.212,9.212,9.212
		s9.212-4.123,9.212-9.212V256C102.729,250.911,98.604,246.788,93.516,246.788z"/>
	<path style="fill:#414042;" d="M148.91,302.31c-5.088,0-9.212,4.123-9.212,9.212v153.157c0,5.089,4.125,9.212,9.212,9.212
		c5.088,0,9.212-4.123,9.212-9.212V311.522C158.122,306.434,153.997,302.31,148.91,302.31z"/>
	<path style="fill:#414042;" d="M204.304,317.133c-5.088,0-9.212,4.123-9.212,9.212v138.334c0,5.089,4.125,9.212,9.212,9.212
		s9.212-4.123,9.212-9.212V326.345C213.517,321.258,209.392,317.133,204.304,317.133z"/>
	<path style="fill:#414042;" d="M255.999,302.31c-5.088,0-9.212,4.123-9.212,9.212v153.157c0,5.089,4.125,9.212,9.212,9.212
		s9.212-4.123,9.212-9.212V311.522C265.212,306.434,261.087,302.31,255.999,302.31z"/>
	<path style="fill:#414042;" d="M315.091,317.133c-5.088,0-9.212,4.123-9.212,9.212v138.334c0,5.089,4.125,9.212,9.212,9.212
		c5.088,0,9.212-4.123,9.212-9.212V326.345C324.303,321.258,320.18,317.133,315.091,317.133z"/>
	<path style="fill:#414042;" d="M370.486,302.31c-5.088,0-9.212,4.123-9.212,9.212v153.157c0,5.089,4.125,9.212,9.212,9.212
		c5.088,0,9.212-4.123,9.212-9.212V311.522C379.698,306.434,375.573,302.31,370.486,302.31z"/>
	<path style="fill:#414042;" d="M425.879,246.788c-5.088,0-9.212,4.123-9.212,9.212v153.157c0,5.089,4.125,9.212,9.212,9.212
		c5.088,0,9.212-4.123,9.212-9.212V256C435.091,250.911,430.967,246.788,425.879,246.788z"/>
</g>
</svg>